HIERARCHY
ROOT Hips
{
	OFFSET -14.64140 90.27770 -84.91600
	CHANNELS 6 Xposition Yposition Zposition Zrotation Xrotation Yrotation
	JOINT Spine
	{
		OFFSET 0.00000 13.20850 -1.60436
		CHANNELS 3 Zrotation Xrotation Yrotation
		JOINT Spine1
		{
			OFFSET 0.00000 8.61716 0.00000
			CHANNELS 3 Zrotation Xrotation Yrotation
			JOINT Spine2
			{
				OFFSET 0.00000 8.61717 0.00000
				CHANNELS 3 Zrotation Xrotation Yrotation
				JOINT Spine3
				{
					OFFSET 0.00000 8.61717 0.00000
					CHANNELS 3 Zrotation Xrotation Yrotation
					JOINT Neck
					{
						OFFSET 0.00000 11.07920 1.10792
						CHANNELS 3 Zrotation Xrotation Yrotation
						JOINT Neck1
						{
							OFFSET 0.00000 7.08032 0.00000
							CHANNELS 3 Zrotation Xrotation Yrotation
							JOINT Head
							{
								OFFSET 0.00000 7.08031 0.00000
								CHANNELS 3 Zrotation Xrotation Yrotation
								End site
								{
									OFFSET 0.00000 0.00000 0.00000
								}
							}
						}
					}
					JOINT RightShoulder
					{
						OFFSET -0.01000 7.91373 5.19711
						CHANNELS 3 Zrotation Xrotation Yrotation
						JOINT RightArm
						{
							OFFSET -18.41580 0.00000 0.00000
							CHANNELS 3 Zrotation Xrotation Yrotation
							JOINT RightForeArm
							{
								OFFSET -29.11090 0.00000 0.00000
								CHANNELS 3 Zrotation Xrotation Yrotation
								JOINT RightHand
								{
									OFFSET -24.65040 0.00000 0.00000
									CHANNELS 3 Zrotation Xrotation Yrotation
									JOINT RightHandThumb1
									{
										OFFSET -5.35114 -0.85590 3.97906
										CHANNELS 3 Zrotation Xrotation Yrotation
										JOINT RightHandThumb2
										{
											OFFSET -4.52789 0.00000 0.00000
											CHANNELS 3 Zrotation Xrotation Yrotation
											JOINT RightHandThumb3
											{
												OFFSET -2.46976 0.00000 0.00000
												CHANNELS 3 Zrotation Xrotation Yrotation
												End site
												{
													OFFSET 0.00000 0.00000 0.00000
												}
											}
										}
									}
									JOINT RightHandIndex1
									{
										OFFSET -14.26970 0.00000 2.88139
										CHANNELS 3 Zrotation Xrotation Yrotation
										JOINT RightHandIndex2
										{
											OFFSET -5.48836 0.00000 0.00000
											CHANNELS 3 Zrotation Xrotation Yrotation
											JOINT RightHandIndex3
											{
												OFFSET -3.01859 0.00000 0.00000
												CHANNELS 3 Zrotation Xrotation Yrotation
												End site
												{
													OFFSET 0.00000 0.00000 0.00000
												}
											}
										}
									}
									JOINT RightHandMiddle1
									{
										OFFSET -14.26970 0.00000 -0.09147
										CHANNELS 3 Zrotation Xrotation Yrotation
										JOINT RightHandMiddle2
										{
											OFFSET -6.17441 0.00000 0.00000
											CHANNELS 3 Zrotation Xrotation Yrotation
											JOINT RightHandMiddle3
											{
												OFFSET -3.56743 0.00000 0.00000
												CHANNELS 3 Zrotation Xrotation Yrotation
												End site
												{
													OFFSET 0.00000 0.00000 0.00000
												}
											}
										}
									}
									JOINT RightHandRing1
									{
										OFFSET -12.69180 0.00000 -3.06433
										CHANNELS 3 Zrotation Xrotation Yrotation
										JOINT RightHandRing2
										{
											OFFSET -5.62556 0.00000 0.00000
											CHANNELS 3 Zrotation Xrotation Yrotation
											JOINT RightHandRing3
											{
												OFFSET -3.56744 0.00000 0.00000
												CHANNELS 3 Zrotation Xrotation Yrotation
												End site
												{
													OFFSET 0.00000 0.00000 0.00000
												}
											}
										}
									}
									JOINT RightHandPinky1
									{
										OFFSET -11.11390 0.00000 -6.03719
										CHANNELS 3 Zrotation Xrotation Yrotation
										JOINT RightHandPinky2
										{
											OFFSET -4.52789 0.00000 0.00000
											CHANNELS 3 Zrotation Xrotation Yrotation
											JOINT RightHandPinky3
											{
												OFFSET -2.46976 0.00000 0.00000
												CHANNELS 3 Zrotation Xrotation Yrotation
												End site
												{
													OFFSET 0.00000 0.00000 0.00000
												}
											}
										}
									}
								}
							}
						}
					}
					JOINT LeftShoulder
					{
						OFFSET 0.01000 7.91373 5.19711
						CHANNELS 3 Zrotation Xrotation Yrotation
						JOINT LeftArm
						{
							OFFSET 18.41580 0.00000 0.00000
							CHANNELS 3 Zrotation Xrotation Yrotation
							JOINT LeftForeArm
							{
								OFFSET 29.11090 0.00000 0.00000
								CHANNELS 3 Zrotation Xrotation Yrotation
								JOINT LeftHand
								{
									OFFSET 24.65040 0.00000 0.00000
									CHANNELS 3 Zrotation Xrotation Yrotation
									JOINT LeftHandThumb1
									{
										OFFSET 5.35114 -0.85590 3.97906
										CHANNELS 3 Zrotation Xrotation Yrotation
										JOINT LeftHandThumb2
										{
											OFFSET 4.52789 0.00000 0.00000
											CHANNELS 3 Zrotation Xrotation Yrotation
											JOINT LeftHandThumb3
											{
												OFFSET 2.46977 0.00000 0.00000
												CHANNELS 3 Zrotation Xrotation Yrotation
												End site
												{
													OFFSET 0.00000 0.00000 0.00000
												}
											}
										}
									}
									JOINT LeftHandIndex1
									{
										OFFSET 14.26970 0.00000 2.88139
										CHANNELS 3 Zrotation Xrotation Yrotation
										JOINT LeftHandIndex2
										{
											OFFSET 5.48836 0.00000 0.00000
											CHANNELS 3 Zrotation Xrotation Yrotation
											JOINT LeftHandIndex3
											{
												OFFSET 3.01859 0.00000 0.00000
												CHANNELS 3 Zrotation Xrotation Yrotation
												End site
												{
													OFFSET 0.00000 0.00000 0.00000
												}
											}
										}
									}
									JOINT LeftHandMiddle1
									{
										OFFSET 14.26970 0.00000 -0.09147
										CHANNELS 3 Zrotation Xrotation Yrotation
										JOINT LeftHandMiddle2
										{
											OFFSET 6.17440 0.00000 0.00000
											CHANNELS 3 Zrotation Xrotation Yrotation
											JOINT LeftHandMiddle3
											{
												OFFSET 3.56744 0.00000 0.00000
												CHANNELS 3 Zrotation Xrotation Yrotation
												End site
												{
													OFFSET 0.00000 0.00000 0.00000
												}
											}
										}
									}
									JOINT LeftHandRing1
									{
										OFFSET 12.69180 0.00000 -3.06433
										CHANNELS 3 Zrotation Xrotation Yrotation
										JOINT LeftHandRing2
										{
											OFFSET 5.62556 0.00000 0.00000
											CHANNELS 3 Zrotation Xrotation Yrotation
											JOINT LeftHandRing3
											{
												OFFSET 3.56744 0.00000 0.00000
												CHANNELS 3 Zrotation Xrotation Yrotation
												End site
												{
													OFFSET 0.00000 0.00000 0.00000
												}
											}
										}
									}
									JOINT LeftHandPinky1
									{
										OFFSET 11.11390 0.00000 -6.03719
										CHANNELS 3 Zrotation Xrotation Yrotation
										JOINT LeftHandPinky2
										{
											OFFSET 4.52789 0.00000 0.00000
											CHANNELS 3 Zrotation Xrotation Yrotation
											JOINT LeftHandPinky3
											{
												OFFSET 2.46976 0.00000 0.00000
												CHANNELS 3 Zrotation Xrotation Yrotation
												End site
												{
													OFFSET 0.00000 0.00000 0.00000
												}
											}
										}
									}
								}
							}
						}
					}
					JOINT pCube4
					{
						OFFSET 0.00000 10.91090 1.10792
						CHANNELS 3 Zrotation Xrotation Yrotation
						End site
						{
							OFFSET 0.00000 0.00000 0.00000
						}
					}
				}
			}
		}
	}
	JOINT RightUpLeg
	{
		OFFSET -9.98441 0.00000 0.00000
		CHANNELS 3 Zrotation Xrotation Yrotation
		JOINT RightLeg
		{
			OFFSET 0.00000 -42.11790 0.00000
			CHANNELS 3 Zrotation Xrotation Yrotation
			JOINT RightFoot
			{
				OFFSET 0.00000 -45.00020 -0.00001
				CHANNELS 3 Zrotation Xrotation Yrotation
				JOINT RightForeFoot
				{
					OFFSET 0.00000 -3.74820 0.00000
					CHANNELS 3 Zrotation Xrotation Yrotation
					JOINT RightToeBase
					{
						OFFSET 0.00000 0.06325 14.43120
						CHANNELS 3 Zrotation Xrotation Yrotation
						End site
						{
							OFFSET 0.00000 0.00000 0.00000
						}
					}
				}
			}
		}
	}
	JOINT LeftUpLeg
	{
		OFFSET 9.98441 0.00000 0.00000
		CHANNELS 3 Zrotation Xrotation Yrotation
		JOINT LeftLeg
		{
			OFFSET 0.00000 -42.11800 0.00000
			CHANNELS 3 Zrotation Xrotation Yrotation
			JOINT LeftFoot
			{
				OFFSET 0.00000 -45.00070 0.00000
				CHANNELS 3 Zrotation Xrotation Yrotation
				JOINT LeftForeFoot
				{
					OFFSET 0.00000 -3.74824 0.00000
					CHANNELS 3 Zrotation Xrotation Yrotation
					JOINT LeftToeBase
					{
						OFFSET 0.00000 0.06325 14.43110
						CHANNELS 3 Zrotation Xrotation Yrotation
						End site
						{
							OFFSET 0.00000 0.00000 0.00000
						}
					}
				}
			}
		}
	}
}
MOTION
Frames: 4
Frame Time: 0.050000
0.007363246126454686 -0.04602305433235758 -0.01846930003273201 -0.008861974500188911 0.03626521793427126 0.005703596320598528 5.719078641519096 2.013655738151486 -2.4199254107343107 -0.6554020792315712 3.5363178106728594 0.32450123536885644 -0.47029121120967615 -1.56747414384282 0.3465568389557505 -0.7210169395066428 -0.5783768097648312 -0.28685464061583005 -0.3916897947402152 15.067652761967972 -0.22916780250062613 0.4279269254526632 0.8674160106769044 1.0212937906115733 0.47390168849751124 -14.96554216275618 0.02987458479910244 -12.887648325856386 4.1691572662959295 -18.250868392363053 81.05097608460058 -6.604177176175062 22.023037623029232 33.93861470346735 12.335349088531112 95.02926430125935 14.486535270685524 -0.590620326039548 -6.26586884707504 4.538798389013379 -0.12644465115158493 -1.6225397034271667 0.00268385457208036 0.014335676098283148 -56.20573939239833 0.015105364521425926 -0.006949201570013717 -56.20668841252531 -38.784085992903734 0.018311604538147046 -0.028969651382648 0.038095238531491285 0.0027730061568772804 -0.027145838531897976 0.03893303556864477 -0.03044705515021094 0.04881373132881772 -36.71063949928369 -0.01085620709712458 -0.00372550065420825 -0.012976669950883169 0.006320749388133712 -0.0022618449398776248 -0.004587713665089618 0.03909655767748145 -0.021308911538269668 -19.790510736567196 0.03133228550450671 0.03719971145717718 -0.023782164265848303 0.03952760420900216 0.017693743245816664 -0.001757120340942138 0.01450423410116432 0.026547069667838322 24.010468187436874 -0.01392013383771242 0.00574136676181537 28.860774642562774 -0.002327162187329534 -0.0008839434142512865 28.836798415491316 0.023177820219867442 0.012355878407720193 14.513215686059203 3.123559245966079 15.182781543506396 -71.72916021482378 6.618031379341765 -29.93430184879788 -39.66176498387082 16.778101398034625 -92.24360733300962 -24.63339977320491 -7.799678262855034 4.889911435522728 -0.44096924496048356 0.08823436918977579 -8.144615371484324 -0.013956611122661031 0.04049756889370607 44.586875913949406 0.01596782398022492 0.01464646631167647 44.53432423961405 12.448939168678953 -0.03437478532534464 0.0013025743660972748 -0.012396590481704033 -0.01558939007569714 -0.03657643211078055 0.01607889995762194 -0.017907870126202482 0.038283375262299205 11.141354254818534 -0.01536171934508704 0.006885253894386851 0.02279993759299386 0.013571746442050467 0.010936658810576982 -0.04803345811499303 0.009018428488928556 -0.005448309134640656 4.771481470454323 -0.041915262542978636 -0.045573132817630715 -0.019086035126617204 0.04082298855151684 -0.004369447269061475 -0.04443580617187889 -0.0001897335942830171 0.011362989510051496 -5.596046934089707 0.03910631433707866 -0.025295619547069756 -6.710050082276276 0.02797161741863301 -0.019430708742901134 -6.740636339381553 -0.030057250221142934 -0.03743813986614306 0.01049621342320074 0.03758241150315411 0.0013889607644572604 8.034628998718693 3.5325137018257067 -19.20917977037833 0.04343591848998985 10.376063792885958 0.02377741248090714 -5.631195753212135 -15.642558683541404 3.211092407151416 -0.03806658858771873 0.028871366181411107 -0.04006732548798987 0.04274198630727792 4.731431148676412 0.015819491515594468 12.444566047135384 -8.250279515173858 6.856939350393678 -0.022225043923321523 46.357204231978656 0.004852499451460188 -4.285550779021166 -14.703901977234171 -3.838140413961328 0.02049142833332147 -0.0066890295402781885 0.011671046350501585 -0.03087682821213798 -10.76636572634987 0.001280582502090822 
-0.03522922408528945 -0.015302834948734488 0.04105404315965938 -0.011600669884634358 -0.03994080440442607 0.014476341121615922 5.852069236902469 1.9485229841211924 -2.4598777102878278 -0.7067475343879608 3.511949796140474 0.3340259142449902 -0.4991532681810683 -1.495247002194143 0.3976040744009036 -0.7128791127618992 -0.5190123416041136 -0.3242777545045558 -0.4387601455078217 15.083349172788731 -0.18995773649917427 0.4032838753912351 0.8311186347222848 1.0084159981273983 0.4059101701051601 -14.973340442803503 0.11486768438090561 -12.913105684447622 4.20528783533963 -18.159236669527633 81.68104581707479 -5.1623363007626955 22.467656970923585 35.595420287841726 12.279300897595258 95.56866109877132 15.157743994661562 -0.62685794269133 -6.923717540734633 4.5490495984765085 -0.1282006943501188 -1.5949026337634662 0.0162432348145114 0.01953291525086773 -56.2487644422428 0.019691049055782922 0.008450559401067086 -56.25473045383655 -38.77365301370543 -0.019911451158858593 0.01716367916683036 0.005339961509679913 0.029925853493566926 -0.004681644883707683 0.009186849703538585 0.042971055511618915 -0.0142741272034703 -36.678887973183365 0.04866474200378776 0.028526905659896736 0.010079517670770952 -0.03192691490031194 0.04361345124839344 -0.012527941004619642 0.017699385407677654 -0.04262247054173933 -19.79455790752197 0.004798352033725953 -0.04247065582222698 0.011252042145573278 -0.04830976131070067 -0.010593969213569678 0.003581914453651857 0.021950425970713876 -0.025511009232600152 24.009344854676247 0.008417281162037481 -0.005397763431026463 28.891867082804055 0.007297140095905842 -0.04350428010118486 28.839135113328712 -0.024844362871981183 -0.014225665042884873 14.549602598004654 3.1445749616921175 15.06705265546554 -72.0365515584743 7.701097758570008 -30.149319358993303 -40.3777388887882 16.647083450164306 -92.09458245035191 -25.862147859949175 -8.852254452919597 6.057587520725407 -0.46593796230546514 0.07806068102559036 -8.136552442229027 0.03774887346897251 -0.023697693721277332 44.52997762469426 0.03006022527840971 0.02919498735846422 44.57167969975826 12.48154550355017 0.010797574224907168 0.028783997192870604 -0.018495834203713528 0.04765678743157002 -0.004238124165350067 -0.03215358172558087 -0.03505600661289985 0.03880434891097859 11.102017591102575 -0.04107641233375557 0.03324884319305864 0.008144325710133253 -0.04332126650140504 0.008824930973195933 -0.03032429318136621 -0.020795356148424152 -0.03139665466981591 4.767160231559284 0.00448568866643308 0.038521539324836734 -0.008623037614041675 -0.002411236617583069 0.0427898159292041 0.010724288885338782 0.03789973403956909 0.019540487115399113 -5.574888155570517 -0.030766734166901274 -0.030861397996105835 -6.706477283943017 0.03321040548468736 -0.008607050899135531 -6.681465200513715 0.025248428347829355 0.014153071257403612 0.031805726070882105 -0.033062892784128585 0.03234886379895673 8.042278484716736 3.4641188254804924 -19.192830030462755 0.011850189562623459 10.399576812381502 -0.013825715168188608 -5.628798686143608 -15.64869372798935 3.1713258793216053 -0.0026354194669488355 -0.033460383347524665 -0.0028594907215877255 0.04582367120410471 4.716033915529666 0.006634755347105579 12.467688956559227 -8.269378766362372 6.852098796330741 -0.026613259868260096 46.36566886986432 -0.01994307879246903 -4.352635846236303 -14.715626103058142 -3.853085057443674 0.023648100635963877 -0.010465104721290442 -0.005814653309632027 -0.014020045804131407 -10.782993954808619 -0.015653133360798113 
0.02382270256021312 -0.04409885865970148 -0.011597467884017651 -0.026881910091717084 -0.030847087414979435 -0.04355913387808271 5.869082879304536 1.9173217927514459 -2.4264653834431957 -0.6633596933789139 3.4334337473029026 0.3807374381245995 -0.4510163307727154 -1.541848131027525 0.35048041389281465 -0.7522465973249649 -0.5697155315143568 -0.29609036249520465 -0.38735683188870207 14.979871813819688 -0.28457411483071415 0.4405367596703661 0.8262491836413306 0.9879039585990529 0.40642407531145586 -14.999925133202204 0.04101834745602928 -12.795967151617825 4.126013656563481 -18.01019575446109 82.03022226449231 -3.0629279074496534 22.36035296748116 36.691049821559325 12.130908616588615 95.76921665878695 15.764299311796792 -0.6215756802720837 -7.51750146735566 4.4849385976639615 -0.10358355648960012 -1.5961655371459118 0.04312706507104746 -0.021469846203125018 -56.21243958737579 0.011013562587820722 -0.024892915158900786 -56.28029627154691 -38.80140750431763 0.035636991649721866 0.009706123871970675 0.034250452214299294 -0.011804959375164913 0.0014261714162244726 0.00877183216503801 -0.01864737266560266 -0.03493807073037937 -36.69759445666833 0.04310835787100589 0.03714441183817114 0.008981137674114808 -0.027439904948554764 -0.04344187202926072 -0.00778812201794402 -0.006139131335205339 -0.015282827020360506 -19.74728903609505 0.007502812698485241 0.03496414096550947 0.033361919210017556 -0.035053871958470095 -0.014682503049758771 0.0021056057434433247 -0.025865224861204034 0.033595777607018 24.04736296856925 -0.03553913391078431 -0.048084593551260234 28.86186026373594 -0.0007201748354745697 -0.029348077266177514 28.838500614608865 -0.029181490125512275 0.025954502006810844 14.510589572335919 3.182099368321564 14.98235414679194 -72.22270818980697 9.259596841456487 -30.34095511234519 -40.62144489795467 16.473608713191613 -91.53385071679037 -26.786018924966218 -9.76194707492427 6.999303316579405 -0.5191580371400306 0.06931612752184806 -8.132728604508513 0.019056933206195902 0.021402461392137816 44.58806727648642 0.032968013476104265 -0.041072532037779684 44.56126538970288 12.43941215083899 0.013358442762244531 0.04430838453865934 0.046059965654221206 -0.0035023106923199516 0.009765042603983956 0.02109440492597379 -0.027165248369567203 0.03868752497566814 11.148765508701295 -0.028539804075370337 -0.03440791103656007 0.036434027691394956 -0.033278195240279286 0.023479092761807444 -0.002208661675408712 -0.0016378705730403838 -0.04248203103426156 4.782460679863379 -0.012888645593269134 0.009577983563443028 -0.005806036909455314 0.02867052092651272 -0.02906577267183841 0.03275798830772033 -0.03914758520323788 0.039700730237661255 -5.609974061123678 -0.014790250434725429 0.019871069559334858 -6.767533638185515 0.036333139070488844 -0.012120380514652921 -6.69945858292938 -0.00020572737810899697 0.027565400185803706 -0.026702556814022907 -0.00028895132662377834 0.004329776543865393 8.078444491448483 3.478692185032067 -19.259033392426474 0.004773563079430791 10.35902066872969 0.017033023480153744 -5.639702687277192 -15.663424279994329 3.1967844156079703 -0.04211760936245101 0.0007633134345000744 0.008311564545646183 0.013194656627945382 4.652745786500498 0.03254596712129884 12.43230314737407 -8.1904219372033 6.839999975284567 0.03820815526851392 46.360114908527606 0.04617370028765735 -4.300991885464537 -14.702521041277835 -3.865522752312322 0.0053337252941611235 -0.017261059584441088 -0.01766169470818624 0.02125421984719663 -10.72538664672779 0.026538787325433424 
0.019031036095542644 -0.004467484525963214 -0.0007454185989820145 -0.026970313218507125 -0.047747303224382455 0.01088789187738846 5.972907578624182 1.9919340764627114 -2.4929045004593617 -0.6748106477555845 3.4773056015647663 0.3340133237044717 -0.47776745847159824 -1.4970679334698838 0.3333267949347104 -0.6893423996408767 -0.48146192840047863 -0.2986934575600816 -0.39178059956369005 14.893438331028944 -0.2822716356272789 0.36582874349940386 0.834487439315016 0.8555677152706916 0.4499139218885269 -15.08994281393654 0.07147392020835809 -12.71815422027246 4.165692700773261 -17.89706267888769 82.33734233748768 -1.3793557988783771 22.16946645649761 37.42117001514004 11.878629671332861 95.73185042454014 16.2744602233041 -0.5923061758284164 -8.030293730966598 4.52163174258883 -0.09983422851078948 -1.6233041459672526 -0.0013584227592753242 0.005720006604408892 -56.2717791084993 0.011277083151873387 -0.045607763744601425 -56.21369271600768 -38.76189628697221 -0.013389413120096765 -0.04316391213840245 0.002045009579611553 0.013745283794429823 -0.029255396593255885 0.026218227068123216 0.035406982208902635 -0.015995161281453174 -36.651422542280706 -0.04035252257214586 0.004397073767491562 -0.011812885394206895 -0.047712618144781546 -0.033035989644571294 0.000427641042943796 -0.013886398751812003 -0.013342502269581486 -19.733053314347377 0.03214406585516287 -0.038549147925735716 0.02201274322549847 -0.038022314985432064 -0.005206272684487894 0.01629541064593084 0.030548800712854745 0.017174813469710323 24.02194655979265 0.0484590299337903 0.005668136484773637 28.86071120363271 -0.02383840849665073 -0.04100396271975331 28.833476634576936 -0.0078759495234499 0.010696816323685805 14.416948063407403 3.184891893703192 14.808543906974151 -72.31242783478675 10.546626037139054 -30.617615605950913 -41.45236267264405 16.145538639706402 -91.5089988094154 -27.557457121116958 -10.418361004117624 7.7123755315449705 -0.4714352487168913 0.04039833150139211 -8.078208835246208 -0.027989951995074654 -0.025832999187232558 44.53617058632625 0.0009811083573667283 0.0389371584287254 44.54337514904561 12.434250013198701 -0.005273052138753458 -0.0008894617272455733 0.008901977613115394 -0.003045609087647364 0.03286794910789214 -0.0052282382805070105 0.03746974560718317 0.013743708597400624 11.117569046106386 -0.013399775736801442 -0.030357726058639584 -0.01971194101532401 0.03037430523179532 0.044921226908535644 -0.04984283915220499 0.021952372791675775 -0.0014606324241332996 4.791019625069991 0.02952053826492633 -0.02157601776218461 -0.0035063873788905788 -0.04459156561501218 -0.03434448522755955 0.031078825596129858 0.017748596252287082 0.01954541205059035 -5.562367280652501 -0.001664745152886163 -0.04274515192383564 -6.682919031744584 -0.01475950694139587 -0.02317592662212992 -6.761317273797714 0.017308507412752222 0.012550419734862981 -0.0007593557208679718 0.03547511252738856 -0.047897662260595816 8.004884201715093 3.4946491177325236 -19.26657620465001 -0.0038052972720361714 10.439554706462397 0.019209893173440053 -5.62197058546537 -15.666328791400701 3.148584703786124 -0.02417015828662342 -0.012736557826060596 0.035579686680868965 -0.01590733895623413 4.728989801042073 -0.013541451034685395 12.430131085155063 -8.244363903430454 6.8670133348746925 -0.04513533785887792 46.41211265242236 0.033282507659599427 -4.35155904949368 -14.797617424523391 -3.8323233253017395 0.005646300983983671 -0.015819439947311748 -0.005337855759275903 -0.04310877656488608 -10.776586645989857 -0.009832591154338094 
